
<svg width="64" height="64" viewBox="0 0 64 64" fill="none" xmlns="http://www.w3.org/2000/svg">
  <rect width="64" height="64" rx="12" fill="#E5EEF9"/>
  <path d="M32 16C20.9543 16 12 24.9543 12 36C12 47.0457 20.9543 56 32 56C43.0457 56 52 47.0457 52 36C52 24.9543 43.0457 16 32 16Z" fill="#4A9DD6"/>
  <path d="M32 20C23.1634 20 16 27.1634 16 36C16 44.8366 23.1634 52 32 52C40.8366 52 48 44.8366 48 36C48 27.1634 40.8366 20 32 20Z" fill="#5BBE88"/>
  <path d="M32 24C25.3726 24 20 29.3726 20 36C20 42.6274 25.3726 48 32 48C38.6274 48 44 42.6274 44 36C44 29.3726 38.6274 24 32 24Z" fill="#F5EFE0"/>
  <path d="M32 28C27.5817 28 24 31.5817 24 36C24 40.4183 27.5817 44 32 44C36.4183 44 40 40.4183 40 36C40 31.5817 36.4183 28 32 28Z" fill="#F59E6A"/>
  <path d="M32 32C29.7909 32 28 33.7909 28 36C28 38.2091 29.7909 40 32 40C34.2091 40 36 38.2091 36 36C36 33.7909 34.2091 32 32 32Z" fill="white"/>
</svg>
